<?xml version="1.0" encoding="UTF-8"?>
<svg width="30px" height="30px" viewBox="0 0 30 30" version="1.1" xmlns="http://www.w3.org/2000/svg" xmlns:xlink="http://www.w3.org/1999/xlink">
    <!-- Generator: Sketch 59.1 (86144) - https://sketch.com -->
    <title>Combined Shape</title>
    <desc>Created with Sketch.</desc>
    <g id="romiem-v002" stroke="none" stroke-width="1" fill="none" fill-rule="evenodd">
        <g id="Artboard" transform="translate(-945.000000, -1701.000000)" fill="#171515" fill-rule="nonzero">
            <path d="M965.992509,1701 C966.891386,1701 967.490637,1701.59925 967.490637,1702.49813 C967.490637,1703.397 966.891386,1703.99625 965.992509,1703.99625 L965.992509,1703.99625 L965.992509,1713.28464 L974.082397,1723.77154 C975.131086,1725.11985 975.280899,1726.9176 974.531835,1728.56554 C973.632959,1730.06367 972.134831,1730.96255 970.486891,1730.96255 L970.486891,1730.96255 L949.513109,1730.96255 C947.715356,1730.96255 946.217228,1730.06367 945.468165,1728.56554 C944.719101,1727.06742 944.868914,1725.26966 945.917603,1723.92135 L945.917603,1723.92135 L954.007491,1713.28464 L954.007491,1703.99625 C953.108614,1703.99625 952.509363,1703.397 952.509363,1702.49813 C952.509363,1701.59925 953.258427,1701 954.007491,1701 L954.007491,1701 Z M971.086142,1724.97004 L948.764045,1724.97004 L948.314607,1725.7191 C948.014981,1726.16854 947.865169,1726.76779 948.164794,1727.21723 C948.464419,1727.66667 948.913858,1727.96629 949.513109,1727.96629 L949.513109,1727.96629 L970.486891,1727.96629 C971.086142,1727.96629 971.535581,1727.66667 971.835206,1727.21723 C972.134831,1726.61798 971.985019,1726.16854 971.535581,1725.7191 L971.535581,1725.7191 L971.086142,1724.97004 Z M962.996255,1703.99625 L957.003745,1703.99625 L957.003745,1714.33333 L951.161049,1721.97378 L954.007491,1721.97378 C954.007491,1720.32584 955.355805,1718.97753 957.003745,1718.97753 C958.651685,1718.97753 960,1720.32584 960,1721.97378 L960,1721.97378 L968.838951,1721.97378 L962.996255,1714.33333 L962.996255,1703.99625 Z M960,1712.98502 C960.827393,1712.98502 961.498127,1713.65575 961.498127,1714.48315 C961.498127,1715.31054 960.827393,1715.98127 960,1715.98127 C959.172607,1715.98127 958.501873,1715.31054 958.501873,1714.48315 C958.501873,1713.65575 959.172607,1712.98502 960,1712.98502 Z" id="Combined-Shape"></path>
        </g>
    </g>
</svg>