<?xml version="1.0" encoding="UTF-8"?>
<svg width="22px" height="30px" viewBox="0 0 22 30" version="1.1" xmlns="http://www.w3.org/2000/svg" xmlns:xlink="http://www.w3.org/1999/xlink">
    <!-- Generator: Sketch 59.1 (86144) - https://sketch.com -->
    <g stroke="none" stroke-width="1" fill-rule="evenodd">
        <g transform="translate(-949.000000, -1044.000000)" fill-rule="nonzero">
            <path d="M970.079046,1056.23338 C970.079046,1053.37265 968.121706,1050.96361 965.562108,1050.21079 C965.712673,1048.55458 964.959849,1046.89837 963.755332,1045.69385 C961.346299,1043.43538 957.582183,1043.43538 955.173149,1045.69385 C954.119197,1046.89837 953.516939,1048.55458 953.516939,1050.21079 C950.95734,1050.96361 949,1053.37265 949,1056.23338 C949,1058.34128 950.053952,1060.14806 951.559598,1061.35257 L956.979925,1074 L961.948557,1074 L967.368883,1061.35257 C969.025094,1060.14806 970.079046,1058.34128 970.079046,1056.23338 Z M961.647428,1047.80176 C962.249686,1048.40402 962.550816,1049.15684 962.550816,1050.06023 C961.496863,1050.21079 960.442911,1050.81305 959.539523,1051.56587 C958.636136,1050.81305 957.582183,1050.36136 956.528231,1050.06023 C956.528231,1049.15684 956.82936,1048.40402 957.431619,1047.80176 C958.636136,1046.59724 960.442911,1046.59724 961.647428,1047.80176 Z M954.570891,1059.39523 C954.570891,1059.39523 954.420326,1059.39523 954.420326,1059.39523 C954.119197,1059.24467 953.968632,1059.24467 953.667503,1059.0941 L953.366374,1058.94354 C952.613551,1058.34128 952.011292,1057.28733 952.011292,1056.23338 C952.011292,1054.4266 953.516939,1052.92095 955.323714,1052.92095 C956.528231,1052.92095 957.582183,1053.52321 958.184442,1054.57716 L959.539523,1056.9862 L960.894605,1054.57716 C961.496863,1053.52321 962.550816,1052.92095 963.755332,1052.92095 C965.562108,1052.92095 967.067754,1054.4266 967.067754,1056.23338 C967.067754,1057.28733 966.465496,1058.34128 965.712673,1058.94354 L965.562108,1059.0941 C965.562108,1059.0941 965.562108,1059.0941 965.562108,1059.0941 C965.411543,1059.24467 965.110414,1059.24467 964.959849,1059.39523 C964.809285,1059.39523 964.809285,1059.39523 964.65872,1059.5458 C964.357591,1059.5458 964.207026,1059.69636 963.905897,1059.69636 L955.323714,1059.69636 C955.022585,1059.5458 954.721455,1059.5458 954.570891,1059.39523 Z M959.991217,1070.98871 L959.087829,1070.98871 L955.474279,1062.55709 L963.755332,1062.55709 L959.991217,1070.98871 Z" id="Shape"></path>
        </g>
    </g>
</svg>
