<?xml version="1.0" encoding="UTF-8"?>
<svg width="30px" height="30px" viewBox="0 0 30 30" version="1.1" xmlns="http://www.w3.org/2000/svg" xmlns:xlink="http://www.w3.org/1999/xlink">
    <!-- Generator: Sketch 59.1 (86144) - https://sketch.com -->
    <title>Combined Shape</title>
    <desc>Created with Sketch.</desc>
    <g id="romiem-v002" stroke="none" stroke-width="1" fill="none" fill-rule="evenodd">
        <g id="Artboard" transform="translate(-945.000000, -2229.000000)" fill="#171515" fill-rule="nonzero">
            <path d="M970.5,2229 C973.05,2229 975,2230.95 975,2233.5 L975,2233.5 L975,2254.5 C975,2257.05 973.05,2259 970.5,2259 L970.5,2259 L949.5,2259 C946.95,2259 945,2257.05 945,2254.5 L945,2254.5 L945,2233.5 C945,2230.95 946.95,2229 949.5,2229 L949.5,2229 Z M953.85,2244.75 L948,2250.6 L948,2254.5 C948,2255.4 948.6,2256 949.5,2256 L949.5,2256 L965.1,2256 L953.85,2244.75 Z M969,2241.6 L961.95,2248.65 L969.3,2256 L970.5,2256 C971.4,2256 972,2255.4 972,2254.5 L972,2254.5 L972,2244.6 L969,2241.6 Z M970.5,2232 L949.5,2232 C948.6,2232 948,2232.6 948,2233.5 L948,2233.5 L948,2246.4 L953.85,2240.55 L959.85,2246.55 L969,2237.4 L972,2240.4 L972,2233.5 C972,2232.6 971.4,2232 970.5,2232 L970.5,2232 Z M958.5,2235 C959.328427,2235 960,2235.67157 960,2236.5 C960,2237.32843 959.328427,2238 958.5,2238 C957.671573,2238 957,2237.32843 957,2236.5 C957,2235.67157 957.671573,2235 958.5,2235 Z" id="Combined-Shape"></path>
        </g>
    </g>
</svg>