<?xml version="1.0" encoding="UTF-8"?>
<svg viewBox="0 0 1132 200" version="1.1" xmlns="http://www.w3.org/2000/svg" xmlns:xlink="http://www.w3.org/1999/xlink">
    <g stroke="none" stroke-width="1" fill-rule="evenodd">
        <path d="M212.440765,2.84217094e-14 C270.151885,2.84217094e-14 312.041606,40.8168393 314.000034,97.6402304 L261.972401,187.718684 C247.191479,195.560543 230.055692,200 211.630956,200 C152.514942,200 110,158.383838 110,100.20202 C110,40.8080808 151.705133,2.84217094e-14 212.440765,2.84217094e-14 Z M767.663455,2.84217094e-14 C825.377177,2.84217094e-14 866.167767,39.0804808 869,95.8603717 L859.485,112.323 L722.375311,112.323232 C726.823254,138.181818 745.8281,154.343434 771.30268,154.343434 C790.117478,154.343434 806.158093,145.235434 814.323995,130.547794 L814.569031,130.10101 L844.488,138.278 L814.241288,190.629674 C801.169172,196.776565 786.571409,200 770.898322,200 C711.457634,200 669,157.979798 669,99.7979798 C669,41.2121212 709.8402,2.84217094e-14 767.663455,2.84217094e-14 Z M98.3404651,0 C99.5739535,0.00405010438 101.460465,0.0405010438 104,0.405010438 L104,0.405010438 L104,53.0563674 C99.9689922,52.651357 95.9379845,52.2463466 93.1162791,52.2463466 C79.0077519,52.2463466 66.1085271,58.7265136 58.8527132,69.256785 C52.8062016,77.7620042 51.1937984,85.8622129 51.1937984,103.682672 L51.1937984,103.682672 L51.1937984,194 L0,194 L0,6.48016701 L51.1937984,6.48016701 L51.1937984,34.0208768 C56.4341085,20.2505219 60.0620155,14.5803758 67.7209302,8.91022965 C75.7829457,3.24008351 86.6666667,0 97.9534884,0 L97.9534884,0 Z M517.865491,0 C536.834095,0 552.574,6.07515658 563.06727,17.4154489 C574.367714,29.9707724 578,42.9311065 578,71.2818372 L578,194 L526.744412,194 L526.744412,81.0020877 C526.744412,55.4864301 517.461904,43.3361169 498.089713,43.3361169 C479.12111,43.3361169 468.224253,57.1064718 468.224253,81.0020877 L468.224253,194 L416.968665,194 L416.968665,82.6221294 C416.968665,56.7014614 407.28257,43.3361169 388.717554,43.3361169 C381.833289,43.3361169 376.121281,45.0239824 371.617756,48.3633609 L399.071228,0.813944202 C402.665464,0.26802034 406.472245,0 410.511268,0 C434.726506,0 452.484348,10.9352818 461.363269,31.1858038 C473.874475,9.72025052 491.228729,0 517.865491,0 Z M360.745131,67.1944592 C359.755127,71.7095707 359.25568,76.8551011 359.25568,82.6221294 L359.25568,194 L308.000092,194 L308,158.553 L360.745131,67.1944592 Z M653,0 L653,194 L602,194 L602,0 L653,0 Z M1071.86549,0 C1090.83409,0 1106.574,6.07515658 1117.06727,17.4154489 C1128.36771,29.9707724 1132,42.9311065 1132,71.2818372 L1132,194 L1080.74441,194 L1080.74441,81.0020877 C1080.74441,55.4864301 1071.4619,43.3361169 1052.08971,43.3361169 C1033.12111,43.3361169 1022.22425,57.1064718 1022.22425,81.0020877 L1022.22425,194 L970.968665,194 L970.968665,82.6221294 C970.968665,56.7014614 961.28257,43.3361169 942.717554,43.3361169 C935.833289,43.3361169 930.121281,45.0239824 925.617756,48.3633609 L953.071228,0.813944202 C956.665464,0.26802034 960.472245,0 964.511268,0 C988.726506,0 1006.48435,10.9352818 1015.36327,31.1858038 C1027.87448,9.72025052 1045.22873,0 1071.86549,0 Z M914.745131,67.1944592 C913.755127,71.7095707 913.25568,76.8551011 913.25568,82.6221294 L913.25568,194 L862.000092,194 L862,158.553 L914.745131,67.1944592 Z M212.440765,46.0606061 C182.072949,46.0606061 161.827739,67.4747475 161.827739,100.20202 C161.827739,132.525253 182.072949,154.343434 212.035861,154.343434 C241.593868,154.343434 262.243982,132.121212 262.243982,101.010101 C262.243982,67.0707071 243.213485,46.0606061 212.440765,46.0606061 Z M768.472171,43.2323232 C744.052966,43.2323232 727.559995,57.0923232 722.524395,82.0680432 L722.375311,82.8282828 L816.186465,82.8282828 C811.738522,58.1818182 793.946752,43.2323232 768.472171,43.2323232 Z" fill-rule="nonzero"></path>
    </g>
</svg>
